<?xml version="1.0" encoding="UTF-8"?> <svg xmlns:rdf="http://www.w3.org/1999/02/22-rdf-syntax-ns#" xmlns="http://www.w3.org/2000/svg" xmlns:cc="http://creativecommons.org/ns#" xmlns:dc="http://purl.org/dc/elements/1.1/" xmlns:svg="http://www.w3.org/2000/svg" xmlns:inkscape="http://www.inkscape.org/namespaces/inkscape" xmlns:sodipodi="http://sodipodi.sourceforge.net/DTD/sodipodi-0.dtd" xmlns:ns1="http://sozi.baierouge.fr" xmlns:xlink="http://www.w3.org/1999/xlink" id="svg2060" viewBox="0 0 387.99 321.33"><path id="path2072" d="m194.03 257.89h-104.79v33.069c0 40.257-58.238 40.736-58.238 0v-33.069h-30.997v-103.56c0-27.796 22.358-42.485 34.984-44.088l31.869-81.398c6-15.5 19-28.748 43.5-28.748 160.97-0.21406 6.8301 0.0039 167.25 0 24.5 0 37.5 13.248 43.5 28.748l31.874 81.397c12.626 1.603 35.007 16.292 35.007 44.088v103.56h-30.997v33.069c0 40.736-58.238 40.257-58.238 0v-33.069h-104.79z"></path><g id="g2074" transform="translate(0 -33.974)" fill="#fff"><path id="path2076" d="m193.96 142.3h-125.98l23.998-62.98c3-9 7.502-15.5 18.002-15.597h168c10.5 0.097 15 6.597 18 15.597l23.998 62.98h-126.02z"></path><g id="g2078"><g id="g2080"><path id="path2082" d="m61.043 228.55c-14.856 0-26.901-12.291-26.901-27.45s12.045-27.449 26.901-27.449 26.9 12.29 26.9 27.449-12.044 27.45-26.9 27.45z"></path></g><g id="g2086"><path id="path2088" d="m326.93 228.55c14.856 0 26.9-12.291 26.9-27.45s-12.044-27.449-26.9-27.449-26.901 12.29-26.901 27.449 12.045 27.45 26.901 27.45z"></path></g></g></g><metadata></metadata></svg> 