<svg width="100" height="100" viewBox="0 0 100 100" fill="none" xmlns="http://www.w3.org/2000/svg">
<path fill-rule="evenodd" clip-rule="evenodd" d="M77.6936 62.8067L77.6882 62.8264C77.5067 63.4904 73.0185 79.909 56.1633 79.904C41.3594 79.8994 34.3426 66.8811 34.3426 66.8811C33.2637 66.9419 32.2227 66.7686 31.2624 66.4117C26.9191 64.7974 24.8352 59.7702 26.3338 55.5526L23.9467 53.707C14.6998 46.5805 40.8945 13.969 50.1574 21.3483C50.2043 21.3856 52.3686 23.1481 52.3686 23.1481C55.6945 21.1047 58.9883 20.0001 61.6657 20C63.5671 19.9998 65.1574 20.5567 66.2283 21.7299C68.6325 24.3635 67.7685 29.3927 64.4855 34.4845C65.1916 35.1627 65.7768 36.0844 66.1945 36.9995C67.2382 37.8142 67.9147 39.0528 68.2508 40.7635C68.4587 41.82 68.5751 43.1255 68.6777 44.277C68.7598 45.1987 68.8331 46.0217 68.9376 46.5393C69.1591 46.6405 69.3015 46.7046 69.4054 46.7514C69.5031 46.7953 69.5667 46.824 69.6299 46.8536C69.7477 46.9089 69.8639 46.9676 70.1971 47.1361C70.2545 47.1651 70.3183 47.1974 70.3897 47.2335C71.3739 47.7311 72.5724 48.3372 73.8969 49.6266C76.2512 50.2233 77.1502 52.7557 75.7726 54.484C75.7356 54.5303 75.5693 54.7297 75.397 54.9281C75.4033 54.9449 75.4192 54.9764 75.4428 55.0233C75.5735 55.2824 75.9396 56.0086 76.2156 57.2848C77.1912 57.5179 77.9683 58.1256 78.3761 59.0069C79.0814 60.7316 77.6936 62.8067 77.6936 62.8067ZM70.9047 75.6074V76.3168H71.1733V75.6074H71.448V75.3835H70.6336V75.6074H70.9047ZM71.5301 76.3168V75.3835H71.9128L72.0807 75.9206L72.2461 75.3835H72.6291V76.3168H72.3842V75.6412L72.1841 76.3168H71.9752L71.775 75.643V76.3168H71.5301Z" fill="#5B453E"/>
<path fill-rule="evenodd" clip-rule="evenodd" d="M76.189 61.8031C75.9765 62.5987 74.9348 66.498 70.7652 69.7864C64.9739 74.3546 57.3646 73.8923 54.4908 71.3323C52.9556 69.8909 52.291 67.8294 52.291 67.8294C52.291 67.8294 52.1172 68.9911 52.0875 69.4474C50.9294 67.4704 51.0273 65.0556 51.0273 65.0556C51.0273 65.0556 50.4095 66.2119 50.1267 66.8596C49.2744 64.6822 49.7148 62.4337 49.7148 62.4337L49.0405 63.4426C49.0405 63.4426 48.7242 60.9781 49.5006 58.9253C50.3302 56.7317 51.939 55.1382 52.2569 54.9396C51.0364 54.5501 49.6302 53.4338 49.6279 53.4318C49.6279 53.4318 50.187 53.4689 50.5757 53.3793C50.5757 53.3793 48.1079 51.6048 47.6753 48.8897C48.0328 49.3332 48.7829 49.8341 48.7829 49.8341C48.5401 49.1236 48.3932 47.5428 48.6201 45.9871L48.6209 45.9854C49.0877 43.0134 51.528 41.078 54.2919 41.1023C54.82 41.107 55.3169 41.1308 55.791 41.1536C57.9585 41.2575 59.6492 41.3385 61.6733 39.465C61.7018 39.4386 61.73 39.4124 61.7579 39.3865C62.2417 38.937 62.6521 38.5559 63.3448 38.4017C63.3585 38.3987 63.3758 38.3936 63.3971 38.3874C63.4963 38.3585 63.6834 38.304 64.007 38.304C64.405 38.304 64.7883 38.3938 65.139 38.6034C66.477 39.4027 66.7654 41.4877 66.9093 43.0164C67.2343 46.4821 67.2803 47.4524 67.7888 47.9499C68.1124 48.2665 68.6232 48.3916 69.5121 48.8462C69.6173 48.8999 69.7238 48.9533 69.8316 49.0073C70.8409 49.5137 71.963 50.0766 73.2229 51.4307C73.2299 51.4382 73.2399 51.4427 73.2502 51.4429C74.4263 51.4712 75.0325 52.4007 74.4899 53.0774C70.5434 57.8081 65.0315 60.0735 58.8887 60.2631C58.6926 60.2681 58.3078 60.2771 58.1412 60.281C58.0921 60.2821 58.062 60.2828 58.0613 60.2829C55.5802 60.3583 54.7724 63.58 56.3291 65.5176C57.313 66.7422 59.2054 67.1447 60.7631 67.1507L60.7851 67.1428C67.5014 67.2794 74.2489 62.5089 75.4143 59.8782C75.4228 59.8592 75.4939 59.6917 75.4939 59.6917C75.4939 59.6917 75.4319 59.7647 75.357 59.8263C75.3534 59.8288 75.3356 59.8451 75.3043 59.8738C74.6677 60.4575 68.4217 66.1847 60.7321 65.9684C60.7321 65.9684 59.8629 65.9503 59.0445 65.759C57.9653 65.507 57.1454 65.0311 56.8316 63.9514C56.7384 63.7536 56.6848 63.0694 56.8087 62.6088C57.1462 61.4749 57.7115 61.465 58.5861 61.4497C58.717 61.4474 58.8548 61.445 58.9998 61.4387C62.9782 61.3057 66.1886 60.3016 68.5946 59.155C71.1602 57.9324 73.1154 56.357 73.8199 55.5618C74.7337 57.1062 74.7281 59.0891 74.7281 59.0891C74.7281 59.0891 75.0866 58.9635 75.561 58.9635C77.0522 58.9636 77.359 60.3023 76.2302 61.6612C76.2233 61.6749 76.2103 61.7234 76.189 61.8031ZM39.12 54.5235C39.12 54.5235 38.9344 55.2949 38.566 56.2347C38.2123 53.2266 36.9546 52.59 36.9546 52.5901C36.2259 52.2512 35.4203 52.0631 34.5732 52.0631C31.3052 52.0631 28.656 54.8626 28.656 58.3161C28.656 61.7694 31.3052 64.5689 34.5732 64.5689C38.2541 64.5689 41.0481 61.0511 40.3977 57.208C40.3977 57.208 40.0224 58.0874 39.6728 58.5543C39.7575 57.1786 39.5417 55.8175 39.12 54.5235Z" fill="#F2D8B4"/>
<path d="M26.7851 53.28C26.7615 53.2739 24.5373 51.6908 24.2209 51.1695C22.3495 48.1066 25.6053 41.8154 27.9222 38.2394C33.6479 29.4016 43.1783 22.4268 47.5069 23.4229L51.952 25.6483C50.226 26.6329 48.5568 27.8424 47.5568 28.6468L46.6109 29.4161C46.6109 29.4161 43.8487 31.2197 42.4749 32.3567C36.9679 36.9143 31.5456 43.9697 29.5347 50.7802C29.5347 50.7799 27.8825 51.5755 26.7851 53.28Z" fill="#207EAC"/>
<path d="M48.624 23.431C44.2117 22.3503 34.4975 29.9172 28.6611 39.5056C28.6594 39.5084 28.6577 39.5112 28.656 39.514L28.6795 39.5166L33.33 43.296C38.4362 34.929 44.8538 30.6148 45.0348 30.488L44.2975 25.3669L45.6788 24.6842L48.4509 25.6109L48.2389 24.6549L48.624 23.431Z" fill="#4FB1D3"/>
<path d="M55.28 24.6738L50.2302 28.0567L49.8769 28.32L45.3988 24.8354L45.296 24.1764L46.853 23.4665C46.9329 23.4911 49.8544 24.3922 49.9776 24.4302L50.0298 22.5826L50.1728 22.1632L51.5406 21.664C51.5425 21.6653 55.2748 24.6695 55.28 24.6738Z" fill="#FACD55"/>
<path d="M60.8334 21.664C57.9806 21.664 54.7779 23.246 52.321 24.8014C51.9763 25.0152 51.6344 25.239 51.2994 25.467L50.0139 24.3308L50.4808 26.0418C50.3043 26.1696 50.132 26.2971 49.9633 26.4238L47.3071 25.5686L49.0646 27.1198C48.6633 27.4405 48.3049 27.7407 48.0075 28.0006L43.7926 24.3312L44.0158 25.9758L47.0791 28.8216C47.0791 28.8216 44.3682 30.7459 43.02 31.9591C37.6151 36.8217 32.2935 44.3496 30.32 51.616L30.4322 51.5495C30.4474 51.5406 30.4628 51.5332 30.478 51.5244C30.5329 51.4932 30.5876 51.4635 30.6425 51.4343C30.6778 51.4157 30.7128 51.3968 30.748 51.379C30.8045 51.3504 30.861 51.3238 30.9176 51.2975C30.9508 51.282 30.9843 51.2656 31.0177 51.251C31.0789 51.2239 31.14 51.1994 31.2012 51.175C31.2295 51.1637 31.2578 51.1513 31.286 51.1408C31.3752 51.107 31.4639 51.076 31.5525 51.0481C32.8942 50.6261 34.7196 50.3548 36.8564 51.3115C37.9295 48.4577 39.2116 45.5543 41.2319 42.7644C42.8701 40.5023 44.4448 38.4828 46.3349 37.3721C49.9135 33.8276 59.5589 30.0689 62.649 33.3269C63.3796 32.0667 64.0137 30.8737 64.5361 29.3782C65.8255 25.7817 65.849 21.664 60.8334 21.664Z" fill="#131B23"/>
<path d="M50.288 24.992L49.2402 23.328L48.624 24.157L48.9928 24.8087L50.288 24.992Z" fill="#131B23"/>
<path fill-rule="evenodd" clip-rule="evenodd" d="M59.9783 21.664C58.4119 21.8282 56.7788 22.3981 55.2551 23.1194C50.1115 25.5965 46.5215 29.2504 46.0909 29.6887C46.0724 29.7075 46.0597 29.7204 46.053 29.727C45.6258 30.1478 45.1999 30.5837 44.7775 31.0323C43.5206 32.3666 42.2927 33.8117 41.1421 35.2976C39.1075 37.9249 38.2609 39.1509 36.9757 41.6482C36.9755 41.6485 36.9843 41.6377 37.0015 41.6165C37.4658 41.0458 44.0647 32.9331 45.7533 31.2132C48.9667 27.9402 54.2264 24.2952 54.2811 24.2627C56.527 22.8515 58.4226 22.0233 59.9783 21.664ZM72.6983 54.6082C73.5836 56.1387 73.5782 58.104 73.5782 58.104C73.5935 58.6681 73.5754 58.9792 73.5447 59.4154C71.7493 60.9719 66.3962 65.1058 60.018 64.922C60.018 64.922 59.1759 64.9043 58.383 64.7147C57.343 64.4663 56.5516 63.9982 56.2438 62.9403L56.239 62.9231L56.2384 62.9218C56.2336 62.9109 56.194 62.8156 56.1685 62.6103L56.1675 62.6023L56.1667 62.5946C56.1609 62.5434 56.1561 62.489 56.1527 62.4322L56.1513 62.4058C56.1468 62.315 56.1457 62.211 56.1494 62.0929C56.151 62.0516 56.1535 62.0102 56.1568 61.969L56.1577 61.956C56.1685 61.8284 56.1875 61.7038 56.2169 61.5924C56.5439 60.4686 57.0916 60.4588 57.9389 60.4436C58.0657 60.4413 58.1992 60.4389 58.3397 60.4327C62.1942 60.3009 65.3048 59.3056 67.6357 58.1693C70.1214 56.9576 72.0157 55.3963 72.6983 54.6082Z" fill="#FFFFFE"/>
<path fill-rule="evenodd" clip-rule="evenodd" d="M66.1085 44.7291C66.3882 47.71 66.4546 48.4178 67.0454 48.8379C67.0617 48.8537 67.0783 48.8673 67.095 48.8784C66.6983 48.9941 66.3433 49.1029 66.0285 49.2025C65.4485 48.4161 64.643 47.6808 62.9873 47.8004C60.793 47.9887 59.0492 49.9504 59.365 51.8984C58.3223 52.4244 57.3511 52.9699 56.4479 53.5252C54.9576 53.6849 53.1422 54.1995 51.5411 55.5401C50.3342 55.1599 48.9437 54.0704 48.9412 54.0685C48.9412 54.0685 49.4942 54.1047 49.8785 54.0173C49.8785 54.0173 49.8519 53.9983 49.8038 53.9615C49.8017 53.9588 49.7993 53.9562 49.7964 53.954C49.7636 53.9283 49.7302 53.9028 49.6963 53.877C49.1223 53.4156 47.3673 51.8443 47.0105 49.6353C47.364 50.0681 48.1058 50.5569 48.1058 50.5569C48.0969 50.5315 48.0883 50.5048 48.0797 50.4771C48.081 50.4731 48.0817 50.4687 48.0817 50.4643C48.0817 50.4643 47.9787 50.1707 47.9064 49.6048C47.8866 49.4458 47.8703 49.2764 47.858 49.099C47.8502 48.9795 47.8442 48.8526 47.8407 48.718C47.9315 47.6013 48.2163 46.6631 48.9257 45.7755C49.9601 44.4814 51.3795 43.9555 53.0172 43.9808C53.468 43.9865 53.9235 44.0331 54.3983 44.0816C54.8542 44.1281 55.3278 44.1765 55.8322 44.1923C57.2387 44.2362 58.5935 44.0044 60.0191 43.3652C61.4277 42.7 62.2241 41.9324 63.0577 40.7405C63.3513 40.419 63.8694 39.9486 64.3276 39.9686C64.6315 39.9686 64.8424 40.1178 64.9924 40.2477C65.7179 41.2182 65.9187 42.7288 66.0306 43.9032C66.0585 44.1964 66.0843 44.4713 66.1085 44.7291ZM61.8262 50.4789C62.1647 49.3979 63.7003 48.878 64.6273 49.5313C64.2131 49.77 64.0855 50.4621 64.3382 50.8637C63.8142 50.854 63.2756 51.0591 62.8968 51.4223C62.932 50.9078 62.3627 50.5057 61.8262 50.4789ZM67.4245 71.584C68.2533 71.1521 69.0651 70.6369 69.8437 70.0307C73.9663 66.8217 74.9967 63.0164 75.2071 62.2392C75.2282 62.1615 75.2411 62.1137 75.248 62.1004C73.3395 64.5452 70.8429 66.4881 68.1714 67.8331C65.9749 68.9397 64.3316 69.3247 64.3316 69.3247C64.3316 69.3247 65.5078 70.8623 67.4245 71.584ZM54.9002 62.7231C55.1923 61.6463 56.017 60.7932 57.2812 60.7552L57.3616 60.7534C57.527 60.7495 57.9061 60.7408 58.0994 60.7359C64.1739 60.5509 69.6244 58.3399 73.5269 53.7227C74.0635 53.0622 73.4641 52.1551 72.3011 52.1275C72.2964 52.1273 72.2845 52.1275 72.2845 52.1275C72.1839 52.2328 72.1255 52.3827 72.049 52.5792C71.9759 52.767 71.8862 52.9974 71.7272 53.2722C70.5401 55.3154 68.8983 56.2497 66.709 57.3337C63.1501 59.0891 60.4996 59.4807 58.5865 59.7633C56.8914 60.0138 55.7753 60.1787 55.119 61.131C54.7131 61.7275 54.7054 62.3939 54.9002 62.7231ZM67.8375 61.9581C67.8208 61.9584 67.8035 61.9621 67.7759 61.9682C67.6893 61.9881 67.4973 62.0502 67.2192 62.1401C65.3721 62.7374 59.7291 64.5623 55.9814 63.3961C55.962 63.6298 55.9683 64.121 56.0649 64.3344L56.0653 64.3357C56.7176 64.4652 57.5432 64.5481 58.5013 64.5481C64.1755 64.5481 68.2646 61.9921 67.8375 61.9581ZM36.098 61.4299L36.0931 61.4332C33.4268 61.628 30.9613 58.2521 32.4169 56.3906C32.6163 56.2419 32.7868 56.1564 32.8543 56.1226C32.8661 56.1167 32.8747 56.1124 32.8798 56.1095C32.9187 56.0891 32.9586 56.0724 33 56.0551C33.0287 56.0432 33.0581 56.0309 33.0885 56.0168C33.1176 56.0047 33.1512 55.9946 33.1881 55.9843C33.3063 55.9512 33.3318 55.9419 33.3577 55.9345C33.3836 55.9272 33.41 55.9217 33.5295 55.8967C34.8244 55.6248 35.7378 56.1926 36.1355 56.7508C36.3187 57.0077 36.3581 57.2009 36.3866 57.341C36.3959 57.3865 36.404 57.4265 36.4156 57.4611L36.4158 57.4629C36.1058 57.0343 35.7054 56.9404 35.7054 56.9404C35.3678 56.8072 34.7191 57.0107 34.6769 57.7344C34.6572 58.0127 34.741 58.3246 34.9813 58.5988L34.9831 58.6008C34.9917 58.6105 35.0004 58.6203 35.0094 58.6299C35.0177 58.6389 35.0262 58.6478 35.0346 58.6564C35.2316 58.8587 35.4658 59.0059 35.6894 59.1464C36.0731 59.3876 36.4257 59.6092 36.5063 60.0562C36.5884 60.5479 36.4435 61.062 36.098 61.4299Z" fill="#E2B986"/>
<path fill-rule="evenodd" clip-rule="evenodd" d="M62.4775 32.997C60.3317 31.3193 54.0685 31.7944 47.7983 35.9271C44.9273 37.8192 42.8221 39.8888 41.1994 42.0391C41.1994 42.0391 43.7043 37.1969 49.2084 33.9942C48.8247 33.9315 47.9225 34.0412 47.6636 34.0727C47.6459 34.0749 47.6312 34.0766 47.6199 34.078C48.6198 33.2034 50.4774 32.6196 51.761 32.3542C51.3853 32.1111 50.4906 32.0497 50.0465 32.0378C49.9253 32.0345 49.9172 32.0348 49.7949 32.0401C49.7846 32.0405 49.7735 32.041 49.7614 32.0415C50.9687 31.3551 53.2073 30.9522 55.2423 31.3161C54.9866 30.9709 54.4065 30.719 54 30.5965C53.9645 30.5857 53.8048 30.5454 53.8048 30.5454C53.8048 30.5454 53.9409 30.5127 53.9581 30.5093C55.184 30.2693 56.616 30.5285 57.7488 30.991C57.6202 30.6874 57.3058 30.3338 57.0695 30.11C57.0453 30.0871 56.9042 29.984 56.9042 29.984C58.0894 30.2338 59.2251 30.7595 60.0797 31.3563C59.9635 31.1281 59.6762 30.7439 59.4775 30.5341C60.6099 30.8636 61.8813 31.6848 62.4261 32.862C62.4386 32.8869 62.4697 32.9737 62.4768 32.9934L62.4775 32.997ZM57.4511 48.7102C57.5734 48.8921 57.6061 49.0293 57.5567 49.0865C57.4681 49.1919 57.174 49.0743 56.737 48.8995L56.7359 48.8991C56.6878 48.8798 56.6379 48.8599 56.5864 48.8395C55.2561 48.3349 54.276 48.258 52.541 48.9258L52.4024 48.9798C52.0366 49.1228 51.775 49.225 51.642 49.2048C51.3987 49.168 51.6343 48.7151 52.166 48.2758C53.236 47.4078 54.7054 47.1384 55.9612 47.6136C56.5108 47.8193 57.1281 48.2299 57.4511 48.7102ZM57.1875 50.0939C56.8228 49.8107 56.1512 49.6207 55.4539 49.7412C55.345 49.7581 55.2422 49.7879 55.142 49.8171C55.1075 49.8271 55.0734 49.837 55.0394 49.8463C54.9906 49.8585 54.944 49.876 54.8986 49.8954C54.6103 50.0189 54.3607 50.152 54.1185 50.388C53.8407 50.6611 53.7617 50.9146 53.842 50.9771C53.9108 51.0329 54.0657 50.9681 54.3009 50.8696C54.3357 50.8551 54.3722 50.8398 54.4105 50.824C55.4062 50.4031 56.1108 50.3919 56.7821 50.4395L56.8299 50.4428C57.1271 50.4633 57.325 50.477 57.3728 50.3918C57.4083 50.3309 57.3439 50.2152 57.1875 50.0939ZM35.7464 55.2867C35.2023 54.8405 34.431 54.6292 33.5349 54.8224L33.5189 54.8259C33.4143 54.8484 33.3887 54.854 33.3642 54.8611C33.3565 54.8634 33.3489 54.8658 33.3388 54.869C33.3151 54.8765 33.278 54.8882 33.1953 54.9119C33.1584 54.9224 33.125 54.9329 33.0961 54.9451C33.0661 54.9594 33.037 54.9718 33.0086 54.984C32.9672 55.0018 32.9273 55.0189 32.8884 55.0399C32.8834 55.0428 32.8749 55.0471 32.8633 55.0531C32.7486 55.112 32.3311 55.3263 31.9854 55.7564C31.8007 55.9893 31.6587 56.2485 31.5551 56.515C31.368 57.0074 31.298 57.5471 31.318 58.0655C31.3455 58.7734 31.5307 59.1982 31.6 59.3571C31.6083 59.3761 31.6149 59.3913 31.6194 59.4027C31.7964 59.7893 31.3819 59.8688 31.0037 59.4533L31.0028 59.4523C30.7003 59.1267 30.5066 58.6308 30.4118 58.1904C30.3558 57.9286 30.32 57.6346 30.32 57.3186C30.32 56.9519 30.3683 56.5551 30.4896 56.144C30.8175 55.0643 31.5548 54.2479 32.6748 53.8038C32.7459 53.7754 32.8251 53.7544 32.8992 53.7347C32.9327 53.7258 32.9653 53.7171 32.9956 53.7082L32.9945 53.7084C33.1832 53.6511 33.8587 53.5121 34.5455 53.6207C34.9429 53.6834 35.3044 53.8171 35.6159 53.9936C35.9268 54.1696 36.1883 54.3883 36.3869 54.6229L36.3877 54.6239C36.7123 54.9992 36.9573 55.5287 36.9137 55.9999L36.9136 56.0011C36.8973 56.1971 36.812 56.4779 36.6383 56.5507C36.5737 56.5775 36.509 56.5633 36.4637 56.5181C36.4129 56.4675 36.3985 56.3953 36.3792 56.2982C36.3508 56.155 36.3116 55.9576 36.1291 55.695C36.0357 55.5603 35.9098 55.4188 35.7464 55.2867ZM35.5552 57.0462C35.4314 56.9465 35.3739 56.8614 35.3397 56.7305C35.2892 56.4918 35.3156 56.3533 35.5161 56.21C35.5596 56.1797 35.6007 56.1538 35.6373 56.1308C35.7307 56.072 35.7949 56.0315 35.7953 55.983C35.8022 55.8551 35.2856 55.7234 34.9244 56.085C34.6245 56.4099 34.5299 57.0872 35.0083 57.6151C35.2097 57.8361 35.4534 57.9932 35.6856 58.143C36.0674 58.3892 36.4181 58.6153 36.4983 59.0723C36.5153 59.1764 36.5279 59.2924 36.519 59.4068C36.5207 59.5243 36.4863 59.6879 36.4775 59.7298L36.4756 59.7393C36.3153 60.4491 35.6529 61.1264 34.5605 60.9538L34.513 60.9467C34.3387 60.9205 34.2257 60.9034 34.19 60.9554C34.1057 61.0746 34.5739 61.6193 35.4309 61.5995C36.2695 61.5814 37.1013 60.943 37.368 59.9835L37.3698 59.9766C37.3822 59.931 37.4502 59.681 37.4562 59.4553C37.4712 59.2747 37.4584 59.089 37.4253 58.8947C37.2621 57.9745 36.5493 57.6004 36.0123 57.3186C35.8303 57.2231 35.6685 57.1382 35.5552 57.0462ZM64.0503 48.9913C64.1213 48.5292 64.4473 48.1973 64.7787 48.2498C65.11 48.3025 65.3212 48.7197 65.2503 49.1817C65.1793 49.6438 64.8532 49.9758 64.5219 49.9232C64.1905 49.8705 63.9793 49.4534 64.0503 48.9913ZM61.1376 49.5977C60.9555 49.9356 61.1773 50.4155 61.6331 50.6694C62.0888 50.9235 62.6059 50.8554 62.7881 50.5173C62.9702 50.1794 62.7485 49.6995 62.2925 49.4456C61.8368 49.1917 61.3197 49.2597 61.1376 49.5977Z" fill="#916D53"/>
<path d="M61.9365 46.338C61.9298 45.8804 61.9833 45.1243 62.3017 44.9836C62.3012 44.9837 62.3021 44.9835 62.3017 44.9836C62.8458 44.7283 63.5669 46.6137 63.6 48.288C63.17 47.9966 62.6648 47.873 62.1452 47.934C62.0146 47.395 61.952 46.8872 61.9365 46.338Z" fill="#5B453E"/>
</svg>
